<?xml version="1.0" standalone="no"?>
<!DOCTYPE svg PUBLIC "-//W3C//DTD SVG 20010904//EN"
 "http://www.w3.org/TR/2001/REC-SVG-20010904/DTD/svg10.dtd">
<svg version="1.0" xmlns="http://www.w3.org/2000/svg"
 width="700.000000pt" height="700.000000pt" viewBox="0 0 700.000000 700.000000"
 preserveAspectRatio="xMidYMid meet">
<metadata>
Created by potrace 1.11, written by Peter Selinger 2001-2013
</metadata>
<g transform="translate(0.000000,700.000000) scale(0.100000,-0.100000)"
fill="#000000" stroke="none">
<path d="M2770 6657 c-44 -22 -50 -51 -52 -247 -2 -230 -9 -275 -59 -371 -76
-146 -149 -208 -354 -299 -178 -79 -344 -165 -400 -208 -27 -21 -66 -62 -86
-92 -20 -30 -68 -102 -106 -160 -38 -58 -127 -189 -197 -293 -153 -225 -166
-251 -166 -337 0 -84 14 -133 51 -174 41 -47 88 -56 314 -60 214 -5 273 -17
319 -65 61 -64 33 -209 -79 -414 -50 -92 -72 -118 -215 -262 -144 -144 -280
-302 -280 -323 0 -5 -13 -50 -30 -102 -42 -130 -47 -210 -20 -291 36 -107 81
-154 325 -347 238 -188 277 -225 300 -279 18 -42 16 -60 -40 -297 -59 -252
-61 -299 -18 -386 79 -157 191 -217 305 -161 48 23 135 107 214 206 56 70 65
77 121 105 39 18 81 30 158 44 61 12 201 7 260 -9 78 -21 143 -60 157 -93 20
-50 13 -218 -14 -322 -24 -94 -26 -123 -14 -229 11 -92 43 -133 125 -157 80
-24 118 -19 207 23 78 38 80 38 204 38 212 -1 270 -15 326 -77 43 -48 89 -153
130 -298 30 -108 48 -147 111 -242 48 -74 114 -134 154 -141 14 -3 39 1 56 8
62 26 91 122 98 320 14 382 15 402 41 495 36 127 85 179 209 220 98 32 99 33
109 74 9 34 14 38 73 56 88 27 103 37 103 66 0 29 -28 72 -115 179 -36 44 -83
113 -103 154 -74 150 -39 254 118 349 40 24 55 27 130 26 47 0 119 -2 160 -5
206 -15 358 90 349 240 -4 58 -21 107 -67 195 -53 101 -189 224 -317 286 -70
33 -95 40 -190 47 -82 6 -108 20 -134 71 -37 72 -50 183 -47 387 1 105 -1 202
-6 217 -8 23 -59 58 -84 58 -5 0 -49 25 -99 55 -90 54 -151 81 -209 91 -17 2
-38 7 -46 9 -8 2 -53 7 -100 10 -235 18 -452 123 -516 252 -29 58 -25 154 8
218 37 71 89 127 139 152 61 30 74 33 181 37 63 3 107 10 129 21 113 57 153
130 114 205 -22 43 -116 110 -276 198 -151 82 -165 90 -294 167 -44 26 -188
106 -320 177 -267 144 -373 215 -449 301 -51 58 -156 246 -156 280 0 10 8 34
19 55 10 20 31 82 45 137 15 55 46 156 68 225 50 152 56 195 33 220 -46 51
-248 95 -305 67z m-24 -1094 c11 -43 -4 -120 -75 -368 -21 -77 -42 -160 -45
-185 -8 -56 -8 -236 -1 -270 3 -14 8 -45 11 -70 12 -115 135 -504 200 -632 72
-144 237 -392 458 -688 55 -74 104 -139 109 -145 4 -5 42 -55 83 -110 41 -55
80 -107 87 -115 174 -219 239 -321 330 -520 19 -41 59 -112 89 -156 102 -149
242 -407 253 -464 28 -154 20 -211 -29 -206 -28 3 -84 37 -106 63 -61 72 -207
343 -255 473 -30 79 -105 210 -183 320 -26 36 -59 83 -73 105 -215 324 -346
526 -360 550 -9 17 -27 67 -39 110 -12 44 -26 84 -31 90 -16 17 -20 7 -104
-270 -84 -279 -192 -504 -382 -794 -69 -105 -190 -270 -245 -333 -45 -51 -141
-115 -188 -124 -88 -17 67 294 236 471 98 104 187 242 302 470 152 301 240
555 229 661 -7 67 -28 108 -151 289 -127 187 -196 301 -246 407 -41 89 -114
300 -124 358 -3 19 -8 46 -11 60 -24 122 -28 170 -28 325 0 278 75 528 204
678 46 54 75 61 85 20z m238 -262 c30 -16 80 -47 113 -69 33 -22 88 -52 124
-67 35 -15 85 -38 110 -51 61 -30 129 -100 129 -131 0 -22 -3 -24 -32 -19 -18
3 -107 32 -198 66 -136 50 -182 72 -262 127 -54 36 -98 67 -98 67 0 1 -7 19
-14 41 -29 82 16 94 128 36z m-627 -24 c9 -9 9 -15 0 -27 -11 -15 -110 -87
-241 -175 -33 -22 -90 -70 -128 -108 -78 -76 -110 -95 -161 -99 -82 -5 -61 30
106 180 75 66 155 133 179 148 24 15 60 40 81 56 57 45 133 57 164 25z m721
-881 c40 -25 164 -124 222 -176 19 -17 73 -58 120 -90 47 -32 114 -80 150
-105 139 -100 248 -169 310 -197 222 -101 243 -117 256 -186 11 -59 -24 -70
-131 -41 -22 6 -49 15 -60 19 -11 5 -47 18 -80 31 -94 35 -136 58 -195 108
-60 50 -53 45 -260 186 -123 84 -337 255 -363 290 -11 15 -37 108 -39 136 -2
58 11 63 70 25z m-475 -578 c-6 -74 -34 -199 -55 -247 -40 -95 -152 -292 -187
-330 -100 -108 -314 -271 -356 -271 -34 0 -55 26 -55 67 0 28 10 49 46 92 64
78 151 167 193 199 49 36 49 37 117 122 54 69 113 155 238 348 26 40 51 70 55
68 4 -3 6 -25 4 -48z m1372 -749 c45 -21 111 -62 146 -90 174 -140 271 -190
514 -267 249 -80 259 -82 335 -82 36 0 107 -11 159 -24 94 -24 146 -51 146
-77 0 -22 -64 -38 -145 -37 -79 1 -426 57 -515 83 -103 29 -218 86 -388 189
-95 58 -198 114 -229 126 -70 26 -133 86 -174 164 -23 46 -26 58 -15 65 18 12
68 -3 166 -50z"/>
</g>
</svg>
