<?xml version="1.0" encoding="utf-8"?>
<!-- Generator: Adobe Illustrator 16.0.4, SVG Export Plug-In . SVG Version: 6.00 Build 0)  -->
<!DOCTYPE svg PUBLIC "-//W3C//DTD SVG 1.1//EN" "http://www.w3.org/Graphics/SVG/1.1/DTD/svg11.dtd">
<svg version="1.1" id="Layer_1" xmlns="http://www.w3.org/2000/svg" xmlns:xlink="http://www.w3.org/1999/xlink" x="0px" y="0px"
	 width="2000px" height="2000px" viewBox="0 0 2000 2000" enable-background="new 0 0 2000 2000" xml:space="preserve">
<path fill="#8BC53F" d="M1443.959,1287.601c-19.113-1.879-68.801-12.56-102.41-17.274c-33.592-4.711-89.59-32.977-89.59-32.977
	s-76.807-48.68-95.998-58.099c-19.211-9.426-32.002-1.569-62.408-48.675c-30.393-47.109,38.398-9.426,38.398-9.426
	s25.605,7.85,48.008,29.83c22.391,21.99,84.795,54.961,84.795,54.961s54.398,18.844,112.004,36.125
	c57.602,17.27,16.768-6.163,99.201,15.699C1535.162,1273.472,1507.961,1293.88,1443.959,1287.601 M1127.152,965.686
	c-84.799-31.405-46.395-18.84-97.602-54.959c-51.194-36.115-94.398-64.375-94.398-64.375l-63.994-54.959
	c0,0-35.199-78.521,9.599-47.116c44.801,31.411,70.398,58.105,70.398,58.105s59.199,39.255,94.397,65.955
	c35.199,26.69,70.402,42.39,80.002,45.535c9.6,3.14,48.002,21.985,49.598,28.265
	C1176.756,948.416,1211.953,997.096,1127.152,965.686 M959.156,576.256c-60.798-23.549-81.601-28.259-89.599-34.544
	c-8-6.274-49.6-34.545-49.6-34.545s-25.599-47.105,19.201-28.26c44.798,18.84,51.197,34.545,70.398,40.819
	c19.201,6.286,44.801,20.415,54.399,25.125C973.558,549.566,1019.954,599.816,959.156,576.256 M1064.756,1205.941
	c32.002,43.969,44.799,81.659,60.799,113.063c16,31.405,32.002,31.405,86.398,150.745c25.6,106.785-35.197,50.256-44.797,37.689
	c-9.6-12.56-60.799-103.639-67.207-131.904c-6.396-28.265-73.59-119.34-73.59-119.34s-76.805-119.345-99.204-150.75
	c-22.399-31.405-12.8-128.765-47.999,6.286c-35.199,135.039-128.001,266.944-185.602,336.034
	c-124.798,103.64-19.202-75.37,22.398-109.92c41.603-34.545,153.604-257.525,147.2-317.195
	c-6.396-59.669-127.996-147.609-156.799-336.039c-28.798-188.435,60.801-288.935,73.602-282.65
	c12.799,6.277,6.403,37.685-22.399,131.905c-28.803,94.214,9.599,200.994,41.601,288.929
	C831.158,910.726,1032.756,1161.976,1064.756,1205.941 M728.753,910.731c28.803-50.25,9.602,31.404,6.404,50.25
	c-3.201,18.845-38.405,78.515-47.999,97.355c-9.602,18.845-73.604,72.24-99.202,87.94c-25.604,15.705-32-2.124-32-21.985
	c0-3.141,60.798-75.37,73.595-78.516C642.357,1042.636,699.958,960.981,728.753,910.731 M664.751,508.736
	c-33.598,25.131-70.398,45.541-87.999,62.815c-17.599,17.276-28.802,32.976-43.196,36.115c-14.4,3.146-35.204,6.28-20.805-12.565
	c14.401-18.845,30.404-28.259,30.404-28.259s43.199-42.4,60.799-51.82c17.599-9.425,32.001-25.125,38.397-26.695
	C648.753,486.751,698.354,483.611,664.751,508.736 M1579.959,1199.666c-131.201-128.766-153.604-21.984-176.004-113.06
	c-22.396-91.081,15.998-153.891-22.396-163.315c-38.402-9.42-51.207-47.11-137.604-50.25
	c-86.398-3.135-179.199-56.53-150.402-125.62c28.797-69.09,76.807-62.81,108.797-62.81c32.01,0,89.607-40.825,44.809-78.515
	c-44.799-37.685-57.602-31.411-147.209-87.935c-89.595-56.529-207.993-94.217-246.39-169.592
	c-38.405-75.375-19.204-34.544-6.404-94.22c12.8-59.667,41.604-116.197,35.199-131.896c-6.396-15.708-41.6-25.125-57.599-25.13
	c-16.003,0-47.999-15.7-47.999,34.552c-0.006,50.245,3.198,103.638-9.602,128.76c-12.797,25.122-25.602,62.812-89.599,91.074
	c-64.001,28.268-144,59.67-163.2,100.498c-19.204,40.83-128.004,179.015-128.004,200.995c0,21.985-12.8,84.8,60.804,84.8
	c73.601,0,140.795-6.285,143.999,40.825c3.198,47.11-51.202,128.765-51.202,128.765s-121.6,113.059-124.798,141.33
	c-3.201,28.26-54.403,94.216,32.001,166.444c86.396,72.235,143.999,100.5,137.598,138.191
	c-6.399,37.68-35.199,128.758-28.798,153.883c6.396,25.125,47.999,106.776,108.8,59.671c60.799-47.104,41.598-81.655,127.999-94.215
	c86.401-12.565,118.402,25.125,118.402,25.125s15.998,43.965-9.603,119.335c0,78.52,12.801,81.659,51.206,91.08
	c38.397,9.419,41.595-28.266,108.792-21.98c67.207,6.274,96.004-18.846,134.402,138.181c67.203,131.904,112.002,81.653,112.002-9.42
	c0-91.076,0-179.015,47.996-201c65.168-29.847,44.799,0,57.605-40.825c44.799-12.565,67.201-12.565,25.6-59.671
	c-41.6-47.109-76.803-100.499-32-141.324c44.799-40.824,73.602-25.125,105.602-21.985
	C1544.762,1353.557,1675.959,1337.846,1579.959,1199.666"/>
</svg>
